<svg xmlns="http://www.w3.org/2000/svg" x="0" y="0" viewBox="0 0 1200 628" style="enable-background:new 0 0 1200 628" xml:space="preserve">
	<style>
		.st0{fill:#ccc}
		.st1{fill:#333}
		.st2{fill:#111}
	</style>
	<path class="st0" d="M0 0h1200v628H0z"/>
	<path class="st1" d="M0 436h1200v192H0z"/>
	<circle class="st0" cx="112" cy="516" r="48"/>
	<path class="st2" transform="rotate(-45.001 111.995 516.004)" d="M100 480h24v72h-24z"/>
	<path class="st2" transform="rotate(-45.001 111.995 516.004)" d="M76 504h72v24H76z"/>
	<path class="st0" d="M193 480.7h16.9l3.5 27.3c.7 6.5 1.4 13.1 2.1 19.6h.4c1.2-6.5 2.3-13.2 3.5-19.6l6-27.3H239l6 27.3c1.2 6.2 2.3 13 3.5 19.6h.4c.7-6.6 1.4-13.2 2.1-19.6l3.5-27.3h15.7l-10.4 62.4h-20.9l-4.8-24.8c-1-4.8-1.7-10-2.3-14.6h-.4c-.7 4.6-1.3 9.8-2.3 14.6l-4.6 24.8H204l-11-62.4zM274.2 519.1c0-15.6 11.3-25.2 23-25.2 14.2 0 20.9 10.4 20.9 23.2 0 2.9-.4 5.8-.7 6.9H290c1.5 5.8 5.8 7.7 11.1 7.7 3.3 0 6.3-1 9.8-2.9l5.4 9.8c-5.2 3.6-12.1 5.6-17.5 5.6-13.9.1-24.6-9.2-24.6-25.1zm29.9-5.8c0-3.6-1.5-6.9-6.5-6.9-3.6 0-6.7 2.1-7.7 6.9h14.2zM341.8 537.9h-.4l-1.3 5.2h-12.9v-66.8h16.5v15.6l-.4 6.9c3.4-3.1 7.6-4.8 11.8-4.8 11.3 0 18.7 9.6 18.7 24.3 0 16.6-9.8 26-20 26-4.2 0-8.4-2.2-12-6.4zm15.1-19.4c0-7.9-2.3-11.1-6.7-11.1-2.5 0-4.4 1-6.5 3.5v17.7c1.9 1.7 4 2.3 6.1 2.3 3.9-.1 7.1-3.2 7.1-12.4zM414.5 480.7h20l19 62.4H436l-7.1-30.3c-1.5-6-3.1-13.5-4.6-19.8h-.4c-1.3 6.3-2.9 13.8-4.4 19.8l-7.1 30.3h-16.9l19-62.4zm-5.4 36.4h30.5v12.8h-30.5v-12.8zM458.1 495.1h13.4l1.2 4.4h.4c3.6-3.3 8.3-5.6 13.1-5.6 11.3 0 18.6 9.6 18.6 24.4 0 16.5-9.8 25.9-20 25.9-4 0-7.7-1.7-10.8-4.8l.6 7.3V560h-16.5v-64.9zm29.8 23.4c0-7.9-2.3-11.1-6.7-11.1-2.5 0-4.4 1-6.5 3.5v17.7c1.9 1.7 4 2.3 6.1 2.3 3.8-.1 7.1-3.2 7.1-12.4zM513.8 495.1h13.4l1.2 4.4h.4c3.6-3.3 8.3-5.6 13.1-5.6 11.3 0 18.6 9.6 18.6 24.4 0 16.5-9.8 25.9-20 25.9-4 0-7.7-1.7-10.8-4.8l.6 7.3V560h-16.5v-64.9zm29.7 23.4c0-7.9-2.3-11.1-6.7-11.1-2.5 0-4.4 1-6.5 3.5v17.7c1.9 1.7 4 2.3 6.1 2.3 3.9-.1 7.1-3.2 7.1-12.4zM590 480.7h16.5v62.4H590v-62.4zM616.5 519.1c0-15.9 12.1-25.2 25.7-25.2 5.8 0 10.4 1.9 14 5l-7.7 10.6c-2.1-1.7-3.6-2.3-5.4-2.3-6.1 0-9.8 4.6-9.8 11.9 0 7.3 4 11.9 9.2 11.9 2.7 0 5.4-1.3 7.7-3.1l6.3 10.8c-4.8 4.2-10.9 5.6-15.9 5.6-13.5 0-24.1-9.3-24.1-25.2zM661.8 519.1c0-15.9 11.5-25.2 23.8-25.2s23.8 9.2 23.8 25.2-11.5 25.2-23.8 25.2-23.8-9.3-23.8-25.2zm30.7 0c0-7.3-1.9-11.9-6.9-11.9s-6.9 4.6-6.9 11.9c0 7.3 1.9 11.9 6.9 11.9s6.9-4.6 6.9-11.9zM718.1 495.1h13.4l1.2 5.8h.4c3.8-3.6 8.6-6.9 15.2-6.9 10.6 0 15 7.7 15 19.6v29.6h-16.5v-27.5c0-6.1-1.5-7.7-4.8-7.7-3.1 0-4.8 1.3-7.3 3.6v31.5h-16.5v-48zM806.4 494.5h-16.5v-13.8h49.5v13.8h-16.5v48.6h-16.5v-48.6zM844.8 519.1c0-15.6 11.3-25.2 23-25.2 14.2 0 20.9 10.4 20.9 23.2 0 2.9-.4 5.8-.7 6.9h-27.4c1.5 5.8 5.8 7.7 11.1 7.7 3.3 0 6.3-1 9.8-2.9l5.4 9.8c-5.2 3.6-12.1 5.6-17.5 5.6-13.9.1-24.6-9.2-24.6-25.1zm29.9-5.8c0-3.6-1.5-6.9-6.5-6.9-3.6 0-6.7 2.1-7.7 6.9h14.2zM893.9 537.5l7.3-10.2c4.4 3.3 8.4 4.8 11.7 4.8 3.5 0 4.8-1 4.8-2.9 0-2.5-4.4-3.6-9.2-5.6-5.6-2.2-12.1-6.3-12.1-14.2 0-9.4 7.7-15.6 19-15.6 7.9 0 13.4 3.2 17.7 6.3l-7.3 9.8c-3.5-2.5-6.8-4-9.8-4-2.8 0-4.2.8-4.2 2.7 0 2.5 4.2 3.5 9 5.2 5.8 2.1 12.3 5.8 12.3 14.4 0 9-7.1 15.9-20.5 15.9-6.2.2-13.7-2.5-18.7-6.6zM943.3 524.7V508H937v-12.3l7.3-.6 1.9-12.5h13.6v12.5h10.9V508h-10.9v16.4c0 5.3 2.7 7 5.8 7 1.5 0 3.1-.4 4.2-.8l2.5 11.9c-2.5.8-6 1.7-11.3 1.7-12.5.1-17.7-7.8-17.7-19.5z"/>
	<path class="st1" d="M87.3 80.8H71.2l.6-3.1h35.7l-.6 3.1H90.8l-9.9 49.6h-3.4l9.8-49.6zM126.5 91c8.3 0 11.6 5.7 11.6 13.6 0 2.7-.6 5.2-1.1 6.7h-26.8c-2.1 12 3.8 17.2 11.5 17.2 3.4 0 6.8-1.7 9.6-3.7l1.5 2.4c-3.1 2.2-7.2 4.2-11.6 4.2-8.9 0-14.6-5.6-14.6-15.8-.1-14.7 10-24.6 19.9-24.6zm8 17.7c.3-1.5.5-2.9.5-4.6 0-5.2-2.3-10.3-8.8-10.3-6.8 0-13.4 6.1-15.5 14.8h23.8zM140.7 124.2l2.3-1.8c2.2 3.4 6 6.1 10.9 6.1 5.3 0 9.8-3.7 9.8-8 0-3.1-1.3-5.1-7.3-8.3-6.9-3.7-9.4-6.4-9.4-10.3 0-6.5 5.6-10.8 12.1-10.8 4.3 0 7.9 1.9 10.6 4.7l-2.1 2.1c-2.1-2.2-4.7-4-8.6-4-4.9 0-8.8 3.4-8.8 7.5 0 3.7 3.4 5.6 7.1 7.7 8.3 4.5 9.6 7.4 9.6 10.9 0 7-5.8 11.4-13.4 11.4-5.4 0-10.6-3.6-12.8-7.2zM177.7 123.8c0-1.5.2-2.5.4-3.8l5.2-25.1h-6l.5-2.5 6.2-.4 2.7-11h2.8l-2.2 11h10.4l-.6 2.9h-10.4l-5.2 25.3c-.2 1-.3 1.9-.3 3 0 3.6 1.3 5.4 5.4 5.4 1.8 0 3.4-.8 4.6-1.4l.9 2.5c-1.5.8-3.7 1.8-6.2 1.8-6.1-.1-8.2-3.6-8.2-7.7zM206.8 92h3.3l-7.7 38.4h-3.3l7.7-38.4zm1-11.9c0-2.1 1.6-3.6 3.4-3.6 1.5 0 2.7 1.1 2.7 2.8 0 2-1.6 3.5-3.4 3.5-1.5-.1-2.7-1.2-2.7-2.7zM224.4 92h2.8l-.9 6.1h.3c4.7-4.1 9-7.1 13.7-7.1 6.6 0 9.2 3.8 9.2 9.4 0 1.9-.2 3-.6 5.2l-5 24.8h-3.3l4.9-24.4c.5-2.3.6-3.4.6-5 0-4.7-2-7.1-6.8-7.1-3.4 0-7.9 2.4-13.7 8.1l-5.7 28.3h-3.3l7.8-38.3zM254.5 143.6l1.8-2.4c2.9 2.7 6.7 4.9 11.4 4.9 7.5 0 11.7-5.4 13.5-13.5l1.9-9c-4.4 4.2-9 7-14.3 7-6.6 0-11.1-4.8-11.1-13.6 0-14.2 10.2-25.9 20.4-25.9 4.4 0 7.9 2.5 9.9 6.3h.3l1.5-5.3h2.8l-8.4 41.7c-2 9.4-7.7 15.2-16.6 15.2-5.5-.1-9.7-2.6-13.1-5.4zm29.1-23.8 4-19c-2.9-5-5.9-6.9-9.5-6.9-8.7 0-17 11.3-17 22.4 0 7.6 3.2 11.3 8.4 11.3 4.3 0 9.7-2.9 14.1-7.8zM347.1 89.6l3.4-16.7h3.3l-11.6 57.6h-2.8l.9-6.1h-.3c-4 4.1-8.9 7.1-14.2 7.1-6.8 0-11.2-4.8-11.2-13.9 0-14.8 10.2-26.5 20.8-26.5 4.5 0 7.8 2.5 9.8 6.2h.3l1.6-7.7zm-6.2 30.5 4-19.3c-2.8-5-5.9-6.9-9.5-6.9-9.1 0-17.5 11.4-17.5 23 0 7.8 3.3 11.5 8.6 11.5 5 0 9.8-2.9 14.4-8.3zM364.2 92h3.3l-7.7 38.4h-3.3l7.7-38.4zm1.1-11.9c0-2.1 1.6-3.6 3.4-3.6 1.5 0 2.7 1.1 2.7 2.8 0 2-1.6 3.5-3.4 3.5-1.5-.1-2.7-1.2-2.7-2.7zM383.9 84c1.7-7.6 5.9-11.3 11.3-11.3 3 0 4.7.8 6.7 1.7l-1.4 2.6c-1.4-.8-2.8-1.4-5.3-1.4-4.2 0-7 3.8-8 8.4l-9.3 46.4h-3.3l9.3-46.4zm-6.7 8.3 5.3-.3h31.8l-.6 2.9h-36.9l.4-2.6zm27.1-9.1c1.6-7.6 5.5-11.3 10.6-11.3 2.6 0 4.2.8 6 1.7l-1.4 2.6c-1.2-.8-2.5-1.4-4.5-1.4-3.9 0-6.3 3.8-7.3 8.4l-9.5 47.2h-3.3l9.4-47.2zM434.9 91c8.3 0 11.6 5.7 11.6 13.6 0 2.7-.6 5.2-1.1 6.7h-26.8c-2.1 12 3.8 17.2 11.5 17.2 3.4 0 6.8-1.7 9.6-3.7l1.5 2.4c-3.1 2.2-7.2 4.2-11.6 4.2-8.9 0-14.6-5.6-14.6-15.8-.1-14.7 10-24.6 19.9-24.6zm8 17.7c.3-1.5.5-2.9.5-4.6 0-5.2-2.3-10.3-8.8-10.3-6.8 0-13.4 6.1-15.5 14.8h23.8zM460.1 92h2.8l-1.2 7.3h.3c3.2-4.5 7.1-8.2 12-8.2 1.1 0 2.2.2 3.5.7l-1.3 3.1c-.7-.4-1.6-.6-3-.6-4.1 0-9 4-12.4 10.8l-5 25.4h-3.3l7.6-38.5zM497.9 91c8.3 0 11.6 5.7 11.6 13.6 0 2.7-.6 5.2-1.1 6.7h-26.8c-2.1 12 3.8 17.2 11.5 17.2 3.4 0 6.8-1.7 9.6-3.7l1.5 2.4c-3.1 2.2-7.2 4.2-11.6 4.2-8.9 0-14.6-5.6-14.6-15.8-.1-14.7 10-24.6 19.9-24.6zm8 17.7c.3-1.5.5-2.9.5-4.6 0-5.2-2.3-10.3-8.8-10.3-6.8 0-13.4 6.1-15.5 14.8h23.8zM523.2 92h2.8l-.9 6.1h.3c4.7-4.1 9-7.1 13.7-7.1 6.6 0 9.2 3.8 9.2 9.4 0 1.9-.2 3-.6 5.2l-5 24.8h-3.3l4.9-24.4c.5-2.3.6-3.4.6-5 0-4.7-2-7.1-6.8-7.1-3.4 0-7.9 2.4-13.7 8.1l-5.7 28.3h-3.3l7.8-38.3zM558.8 123.8c0-1.5.2-2.5.4-3.8l5.2-25.1h-6l.5-2.5 6.2-.3 2.7-11h2.8l-2.2 11h10.4l-.6 2.9h-10.4l-5.2 25.3c-.2 1-.3 1.9-.3 3 0 3.6 1.3 5.4 5.4 5.4 1.8 0 3.4-.8 4.6-1.4l.9 2.5c-1.5.8-3.7 1.8-6.2 1.8-6.1-.2-8.2-3.7-8.2-7.8zM595.5 116.2c0-14.9 10.4-25.1 20.7-25.1 4.4 0 7.2 1.8 9.7 4.7l-2.1 2.2c-2.3-2.7-4.3-4-7.8-4-8.6 0-17.1 10-17.1 21.8 0 8.3 3.5 12.8 10.7 12.8 3.8 0 7.2-1.8 9.9-4l1.7 2.4c-2.8 2.1-6.6 4.5-12 4.5-8.4-.1-13.7-5.6-13.7-15.3zM630 116.2c0-14.4 9.8-25.1 20.3-25.1 7.9 0 13 5.6 13 15.2 0 14.4-9.8 25.1-20.3 25.1-7.9 0-13-5.6-13-15.2zm29.9-9.5c0-8.3-3.6-12.8-10-12.8-8.2 0-16.7 10-16.7 21.8 0 8.3 3.6 12.8 10 12.8 8.3 0 16.7-10 16.7-21.8zM677.7 92h2.8l-.9 6.1h.3c4.3-4.1 9-7.1 12.8-7.1 6.3 0 8.6 3.7 8.8 8 5.3-5.1 10.2-8 14-8 6.4 0 9 3.8 9 9.4 0 1.9-.2 3-.6 5.2l-5 24.8h-3.3l4.9-24.4c.5-2.3.6-3.4.6-5 0-4.7-2-7.1-6.7-7.1-2.5 0-7.4 2.4-12.8 8.1l-5.7 28.3h-3.3l4.9-24.4c.5-2.3.6-3.4.6-5 0-4.7-2-7.1-6.7-7.1-2.5 0-7.4 2.4-12.8 8.1l-5.7 28.3H670l7.7-38.2zM732.6 130.4l11.5-57.6h3.3L744 89.6l-1.6 7.8h.2c4.1-3.3 8.9-6.3 14.2-6.3 6.8 0 11.2 4.8 11.2 13.9 0 14.8-10.2 26.5-20.8 26.5-4.5 0-7.9-2.5-9.9-6.3h-.3l-1.5 5.3h-2.9zm9.1-29.4-4.2 20.5c2.8 5 5.9 6.9 9.5 6.9 9.1 0 17.5-11.4 17.5-23 0-7.7-3.3-11.5-8.6-11.5-4.2 0-9.8 3-14.2 7.1zM782.4 92h3.3l-7.7 38.4h-3.3l7.7-38.4zm1-11.9c0-2.1 1.6-3.6 3.4-3.6 1.5 0 2.7 1.1 2.7 2.8 0 2-1.6 3.5-3.4 3.5-1.5-.1-2.7-1.2-2.7-2.7zM800 92h2.8l-.9 6.1h.3c4.7-4.1 9-7.1 13.7-7.1 6.6 0 9.2 3.8 9.2 9.4 0 1.9-.2 3-.6 5.2l-5 24.8h-3.3l4.9-24.4c.5-2.3.6-3.4.6-5 0-4.7-2-7.1-6.8-7.1-3.4 0-7.9 2.4-13.7 8.1l-5.7 28.3h-3.3L800 92zM833.4 117.5c0-14.8 10.2-26.5 20.8-26.5 4.5 0 7.9 2.5 9.9 6.3h.3l1.5-5.3h2.8l-7.7 38.4h-2.8l.9-6.1h-.3c-4 4.1-8.9 7.1-14.2 7.1-6.8 0-11.2-4.9-11.2-13.9zm26.3 2.6 4-19.3c-2.8-5-5.9-6.9-9.5-6.9-9.1 0-17.5 11.4-17.5 23 0 7.8 3.3 11.5 8.6 11.5 4.9 0 9.8-2.9 14.4-8.3zM877.8 123.8c0-1.5.2-2.5.4-3.8l5.2-25.1h-6l.5-2.5 6.1-.4 2.7-11h2.8l-2.2 11h10.4l-.6 2.9h-10.4l-5.2 25.3c-.2 1-.3 1.9-.3 3 0 3.6 1.3 5.4 5.4 5.4 1.8 0 3.4-.8 4.6-1.4l.9 2.5c-1.5.8-3.7 1.8-6.2 1.8-6-.1-8.1-3.6-8.1-7.7zM906.9 92h3.3l-7.7 38.4h-3.3l7.7-38.4zm1-11.9c0-2.1 1.6-3.6 3.4-3.6 1.5 0 2.7 1.1 2.7 2.8 0 2-1.6 3.5-3.4 3.5-1.5-.1-2.7-1.2-2.7-2.7zM917 116.2c0-14.4 9.8-25.1 20.3-25.1 7.9 0 13 5.6 13 15.2 0 14.4-9.8 25.1-20.3 25.1-7.9 0-13-5.6-13-15.2zm30-9.5c0-8.3-3.6-12.8-10-12.8-8.2 0-16.7 10-16.7 21.8 0 8.3 3.6 12.8 10 12.8 8.2 0 16.7-10 16.7-21.8zM964.8 92h2.8l-.9 6.1h.3c4.7-4.1 9-7.1 13.7-7.1 6.6 0 9.2 3.8 9.2 9.4 0 1.9-.2 3-.6 5.2l-5 24.8H981l4.9-24.4c.5-2.3.6-3.4.6-5 0-4.7-2-7.1-6.8-7.1-3.4 0-7.9 2.4-13.7 8.1l-5.7 28.3H957l7.8-38.3zM994.6 124.2l2.3-1.8c2.2 3.4 6 6.1 10.9 6.1 5.3 0 9.8-3.7 9.8-8 0-3.1-1.3-5.1-7.3-8.3-6.9-3.7-9.4-6.4-9.4-10.3 0-6.5 5.6-10.8 12.1-10.8 4.3 0 7.9 1.9 10.6 4.7l-2.1 2.1c-2.1-2.2-4.7-4-8.6-4-4.9 0-8.8 3.4-8.8 7.5 0 3.7 3.4 5.6 7.1 7.7 8.3 4.5 9.6 7.4 9.6 10.9 0 7-5.8 11.4-13.4 11.4-5.5 0-10.6-3.6-12.8-7.2zM1044.4 116.2c0-14.4 9.8-25.1 20.3-25.1 7.9 0 13 5.6 13 15.2 0 14.4-9.8 25.1-20.3 25.1-7.9 0-13-5.6-13-15.2zm29.9-9.5c0-8.3-3.6-12.8-10-12.8-8.2 0-16.7 10-16.7 21.8 0 8.3 3.6 12.8 10 12.8 8.3 0 16.7-10 16.7-21.8zM1087.5 92.3l5.1-.3 1.7-8.8c1.6-7.6 5.5-11.3 10.6-11.3 2.6 0 4.4.8 6 1.8l-1.4 2.5c-1.2-.8-2.5-1.4-4.5-1.4-3.9 0-6.3 3.8-7.3 8.4l-1.8 8.8h8.4l-.6 2.9h-8.4l-7.1 35.6h-3.3l7.1-35.6h-5l.5-2.6zM77 173.7h27.8l-.6 2.9H79.8L75.5 198h20.6l-.6 2.9H75l-5.2 25.5h-3.4L77 173.7zM103.3 213.5c0-14.8 10.2-26.5 20.8-26.5 4.5 0 7.9 2.5 9.9 6.3h.3l1.5-5.3h2.8l-7.7 38.4h-2.8l.9-6.1h-.3c-4 4.1-8.9 7.1-14.2 7.1-6.8 0-11.2-4.9-11.2-13.9zm26.3 2.6 4-19.3c-2.8-5-5.9-6.9-9.5-6.9-9.1 0-17.5 11.4-17.5 23 0 7.8 3.3 11.5 8.6 11.5 5 0 9.9-2.9 14.4-8.3zM146.6 188h3.3l3.7 24.3c.6 3.7 1 7.7 1.6 11.3h.3c1.9-3.7 3.9-7.6 6-11.3l13-24.3h3.4l-21 38.4h-4.2l-6.1-38.4zM186.4 188h3.3l-7.7 38.4h-3.3l7.7-38.4zm1-11.9c0-2.1 1.6-3.6 3.4-3.6 1.5 0 2.7 1.1 2.7 2.8 0 2-1.6 3.5-3.4 3.5-1.5-.1-2.7-1.2-2.7-2.7zM196.4 212.2c0-14.9 10.4-25.1 20.7-25.1 4.4 0 7.2 1.8 9.7 4.7l-2.1 2.2c-2.3-2.7-4.3-4-7.8-4-8.6 0-17.1 10-17.1 21.8 0 8.3 3.5 12.8 10.7 12.8 3.8 0 7.2-1.8 9.9-4l1.7 2.4c-2.8 2.1-6.6 4.5-12 4.5-8.4-.1-13.7-5.6-13.7-15.3zM231 212.2c0-14.4 9.8-25.1 20.3-25.1 7.9 0 13 5.6 13 15.2 0 14.4-9.8 25.1-20.3 25.1-7.9 0-13-5.6-13-15.2zm29.9-9.5c0-8.3-3.6-12.8-10-12.8-8.2 0-16.7 10-16.7 21.8 0 8.3 3.6 12.8 10 12.8 8.3 0 16.7-10 16.7-21.8zM278.7 188h2.8l-.9 6.1h.3c4.7-4.1 9-7.1 13.7-7.1 6.6 0 9.2 3.8 9.2 9.4 0 1.9-.2 3-.6 5.2l-5 24.8h-3.3l4.9-24.4c.5-2.3.6-3.4.6-5 0-4.7-2-7.1-6.8-7.1-3.4 0-7.9 2.4-13.7 8.1l-5.7 28.3H271l7.7-38.3zM305.9 236.1c4.4-1.9 7.5-5.3 8-9.3v-4.9l2 4c-.5.8-1.7 1-2.4 1-1.7 0-2.9-1.1-2.9-2.8 0-1.9 1.5-3.8 3.7-3.8 2 0 3.1 1.6 3.1 3.9 0 6.4-4.6 12-10.8 14.3l-.7-2.4zM349.3 173.7h3.5l-.2 31.2c-.2 5.7-.1 11.5-.3 17.2h.3c2.7-5.7 5.4-11.5 7.9-17.2l14.5-31.2h3.5l1 31.2c.3 5.7.4 11.5.5 17.2h.3c2.3-5.7 4.7-11.5 7.2-17.2l12.9-31.2h3.5l-22.4 52.7H377l-1.1-36.2c0-4.2-.1-8.2-.1-12.4h-.3c-1.6 4.3-3.5 8.2-5.4 12.4l-16.7 36.2h-4.3l.2-52.7zM422.8 187c8.3 0 11.6 5.7 11.6 13.6 0 2.7-.6 5.2-1.1 6.7h-26.8c-2.1 12 3.8 17.2 11.5 17.2 3.4 0 6.8-1.7 9.6-3.7l1.5 2.4c-3.1 2.2-7.2 4.2-11.6 4.2-8.9 0-14.6-5.6-14.6-15.8-.1-14.7 10-24.6 19.9-24.6zm8 17.7c.3-1.5.5-2.9.5-4.6 0-5.2-2.3-10.3-8.8-10.3-6.8 0-13.4 6.1-15.5 14.8h23.8zM440.3 226.4l11.5-57.6h3.3l-3.4 16.7-1.6 7.8h.2c4.1-3.3 8.9-6.3 14.2-6.3 6.8 0 11.2 4.8 11.2 13.9 0 14.8-10.2 26.5-20.8 26.5-4.5 0-7.9-2.5-9.9-6.3h-.3l-1.5 5.3h-2.9zm9.2-29.4-4.2 20.5c2.8 5 5.9 6.9 9.5 6.9 9.1 0 17.5-11.4 17.5-23 0-7.7-3.3-11.5-8.6-11.5-4.2 0-9.8 3-14.2 7.1zM519.5 173.7h3.7l6.5 52.7h-3.5l-3.5-31.3c-.6-5.8-1.3-11.8-1.9-18h-.3c-3.1 6.4-6.1 11.9-9.4 18l-16.8 31.3h-3.9l29.1-52.7zm-16 31.5h22.6l-.7 2.8h-22.7l.8-2.8zM539.1 229.8l-2.6 14h-3.3l11.2-55.8h2.8l-.8 5.5h.3c4.1-3.3 8.8-6.4 14.1-6.4 6.8 0 11.2 4.9 11.2 13.9 0 14.8-10.2 26.5-20.8 26.5-4.5 0-7.9-2.6-10.1-6.2h-.2l-1.8 8.5zm6.6-32.6-4.2 20.7c2.8 4.8 5.9 6.6 9.5 6.6 9.1 0 17.5-11.4 17.5-23 0-7.7-3.3-11.5-8.6-11.5-4.2-.1-9.8 2.9-14.2 7.2zM581 229.8l-2.6 14H575l11.2-55.8h2.8l-.8 5.5h.3c4.1-3.3 8.8-6.4 14.1-6.4 6.8 0 11.2 4.9 11.2 13.9 0 14.8-10.2 26.5-20.8 26.5-4.5 0-7.9-2.6-10.1-6.2h-.2l-1.7 8.5zm6.7-32.6-4.2 20.7c2.8 4.8 5.9 6.6 9.5 6.6 9.1 0 17.5-11.4 17.5-23 0-7.7-3.3-11.5-8.6-11.5-4.3-.1-9.9 2.9-14.2 7.2zM645.9 173.7h4.9l5.1 30.9 2 11.7h.3l6.1-11.7 17.1-30.9h4.9l-10.5 52.7h-3.4l7-34.8c1-4.4 2.2-9.9 3.2-14.2h-.3l-6.3 11.4-17.4 31.7h-2.9l-5.5-31.7-1.9-11.4h-.3c-.8 4.4-1.5 9.8-2.4 14.2l-7 34.8h-3.3l10.6-52.7zM690.6 213.5c0-14.8 10.2-26.5 20.8-26.5 4.5 0 7.9 2.5 9.9 6.3h.3l1.5-5.3h2.8l-7.7 38.4h-2.8l.9-6.1h-.3c-4 4.1-8.9 7.1-14.2 7.1-6.8 0-11.2-4.9-11.2-13.9zm26.3 2.6 4-19.3c-2.8-5-5.9-6.9-9.5-6.9-9.1 0-17.5 11.4-17.5 23 0 7.8 3.3 11.5 8.6 11.5 4.9 0 9.8-2.9 14.4-8.3zM740.1 188h2.8l-.9 6.1h.3c4.7-4.1 9-7.1 13.7-7.1 6.6 0 9.2 3.8 9.2 9.4 0 1.9-.2 3-.6 5.2l-5 24.8h-3.3l4.9-24.4c.5-2.3.6-3.4.6-5 0-4.7-2-7.1-6.8-7.1-3.4 0-7.9 2.4-13.7 8.1l-5.7 28.3h-3.3l7.8-38.3zM780.9 188h3.3l-7.7 38.4h-3.3l7.7-38.4zm1.1-11.9c0-2.1 1.6-3.6 3.4-3.6 1.5 0 2.7 1.1 2.7 2.8 0 2-1.6 3.5-3.4 3.5-1.5-.1-2.7-1.2-2.7-2.7zM793.9 188.3l5.1-.3 1.7-8.8c1.6-7.6 5.5-11.3 10.6-11.3 2.6 0 4.4.8 6 1.8l-1.4 2.5c-1.2-.8-2.5-1.4-4.5-1.4-3.9 0-6.3 3.8-7.3 8.4l-1.8 8.8h8.4l-.6 2.9h-8.4l-7.1 35.6h-3.3l7.1-35.6h-5l.5-2.6zM831.4 187c8.3 0 11.6 5.7 11.6 13.6 0 2.7-.6 5.2-1.1 6.7h-26.8c-2.1 12 3.8 17.2 11.5 17.2 3.4 0 6.8-1.7 9.6-3.7l1.5 2.4c-3.1 2.2-7.2 4.2-11.6 4.2-8.9 0-14.6-5.6-14.6-15.8-.1-14.7 10.1-24.6 19.9-24.6zm8 17.7c.3-1.5.5-2.9.5-4.6 0-5.2-2.3-10.3-8.8-10.3-6.8 0-13.4 6.1-15.5 14.8h23.8zM845.7 220.2l2.3-1.8c2.2 3.4 6 6.1 10.9 6.1 5.3 0 9.8-3.7 9.8-8 0-3.1-1.3-5.1-7.3-8.3-6.9-3.7-9.4-6.4-9.4-10.3 0-6.5 5.6-10.8 12.1-10.8 4.3 0 7.9 1.9 10.6 4.7l-2.1 2.1c-2.1-2.2-4.7-4-8.6-4-4.9 0-8.8 3.4-8.8 7.5 0 3.7 3.4 5.6 7.1 7.7 8.3 4.5 9.6 7.4 9.6 10.9 0 7-5.8 11.4-13.4 11.4-5.5 0-10.6-3.6-12.8-7.2zM882.7 219.8c0-1.5.2-2.5.4-3.8l5.2-25.1h-6l.5-2.5 6.2-.3 2.7-11h2.8l-2.2 11h10.4l-.6 2.9h-10.4l-5.2 25.3c-.2 1-.3 1.9-.3 3 0 3.6 1.3 5.4 5.4 5.4 1.8 0 3.4-.8 4.6-1.4l.9 2.5c-1.5.8-3.7 1.8-6.2 1.8-6.1-.2-8.2-3.7-8.2-7.8zM898.1 236.1c4.4-1.9 7.5-5.3 8-9.3v-4.9l2 4c-.5.8-1.7 1-2.4 1-1.7 0-2.9-1.1-2.9-2.8 0-1.9 1.5-3.8 3.7-3.8 2 0 3.1 1.6 3.1 3.9 0 6.4-4.6 12-10.8 14.3l-.7-2.4zM936.5 213.5c0-14.8 10.2-26.5 20.8-26.5 4.5 0 7.9 2.5 9.9 6.3h.3l1.5-5.3h2.8l-7.7 38.4h-2.8l.9-6.1h-.3c-4 4.1-8.9 7.1-14.2 7.1-6.8 0-11.2-4.9-11.2-13.9zm26.3 2.6 4-19.3c-2.8-5-5.9-6.9-9.5-6.9-9.1 0-17.5 11.4-17.5 23 0 7.8 3.3 11.5 8.6 11.5 5 0 9.9-2.9 14.4-8.3zM986 188h2.8l-.9 6.1h.3c4.7-4.1 9-7.1 13.7-7.1 6.6 0 9.2 3.8 9.2 9.4 0 1.9-.2 3-.6 5.2l-5 24.8h-3.3l4.9-24.4c.5-2.3.6-3.4.6-5 0-4.7-2-7.1-6.8-7.1-3.4 0-7.9 2.4-13.7 8.1l-5.7 28.3h-3.3L986 188zM1052 185.6l3.4-16.7h3.3l-11.6 57.6h-2.8l.9-6.1h-.3c-4 4.1-8.9 7.1-14.2 7.1-6.8 0-11.2-4.8-11.2-13.9 0-14.8 10.2-26.5 20.8-26.5 4.5 0 7.8 2.5 9.8 6.2h.3l1.6-7.7zm-6.3 30.5 4-19.3c-2.8-5-5.9-6.9-9.5-6.9-9.1 0-17.5 11.4-17.5 23 0 7.8 3.3 11.5 8.6 11.5 5 0 9.9-2.9 14.4-8.3zM64.7 314.4l2.6-1.9c3.3 5 8 7.8 14.6 7.8 7.6 0 13.4-4.8 13.4-12.1 0-4.6-2.7-7.5-6.8-9.9l-6.8-4c-4.4-2.6-8.3-6.3-8.3-12 0-7.3 6.2-13.6 15.2-13.6 6.4 0 11.4 3.2 14.3 7.1l-2.4 2c-2.7-3.4-6.9-6.2-12.4-6.2-6.8 0-11.2 5.2-11.2 10.2 0 4.8 3.2 7.5 7 9.6l6.7 3.9c5 2.9 8.2 6.5 8.2 12.3 0 9.3-7.4 15.6-17.3 15.6-7.4.2-13.1-3-16.8-8.8zM109.5 269.7h3.4l2.7 31.2c.6 5.7 1.2 11.8 1.6 17.6h.3c2.8-5.7 5.9-12 8.9-17.6l16.2-31.2h3.6l-27.7 52.7h-4l-5-52.7zM144.5 302.6c0-15.9 9.9-33.9 27.5-33.9 6 0 10 3.5 12.4 7.5l-2.6 1.8c-2.1-3.6-5.3-6.3-10.1-6.3-15.2 0-23.8 17-23.8 30.4 0 10.1 4.3 18.3 15.6 18.3 4.8 0 8.4-1.8 10.8-4l3.4-16.8h-12.1l.6-2.9h15.4l-4.4 21.4c-3.7 3.2-8.4 5.3-14.1 5.3-12.5 0-18.6-8.6-18.6-20.8zM211.9 284h3.3l-7.7 38.4h-3.3l7.7-38.4zm1-11.9c0-2.1 1.6-3.6 3.4-3.6 1.5 0 2.7 1.1 2.7 2.8 0 2-1.6 3.5-3.4 3.5-1.5-.1-2.7-1.2-2.7-2.7zM221.9 308.2c0-14.9 10.4-25.1 20.7-25.1 4.4 0 7.2 1.8 9.7 4.7l-2.1 2.2c-2.3-2.7-4.3-4-7.8-4-8.6 0-17.1 10-17.1 21.8 0 8.3 3.5 12.8 10.7 12.8 3.8 0 7.2-1.8 9.9-4l1.7 2.4c-2.8 2.1-6.6 4.5-12 4.5-8.3-.1-13.7-5.6-13.7-15.3zM256.5 308.2c0-14.4 9.8-25.1 20.3-25.1 7.9 0 13 5.6 13 15.2 0 14.4-9.8 25.1-20.3 25.1-7.9 0-13-5.6-13-15.2zm29.9-9.5c0-8.3-3.6-12.8-10-12.8-8.2 0-16.7 10-16.7 21.8 0 8.3 3.6 12.8 10 12.8 8.3 0 16.7-10 16.7-21.8zM304.2 284h2.8l-.9 6.1h.3c4.7-4.1 9-7.1 13.7-7.1 6.6 0 9.2 3.8 9.2 9.4 0 1.9-.2 3-.6 5.2l-5 24.8h-3.3l4.9-24.4c.5-2.3.6-3.4.6-5 0-4.7-2-7.1-6.8-7.1-3.4 0-7.9 2.4-13.7 8.1l-5.7 28.3h-3.3l7.8-38.3zM360.1 284h3.3l-7.7 38.4h-3.3l7.7-38.4zm1.1-11.9c0-2.1 1.6-3.6 3.4-3.6 1.5 0 2.7 1.1 2.7 2.8 0 2-1.6 3.5-3.4 3.5-1.5-.1-2.7-1.2-2.7-2.7zM377.7 284h2.8l-.9 6.1h.3c4.3-4.1 9-7.1 12.8-7.1 6.3 0 8.6 3.7 8.8 8 5.3-5.1 10.2-8 14-8 6.4 0 9 3.8 9 9.4 0 1.9-.2 3-.6 5.2l-5 24.8h-3.3l4.9-24.4c.5-2.3.6-3.4.6-5 0-4.7-2-7.1-6.7-7.1-2.5 0-7.4 2.4-12.8 8.1l-5.7 28.3h-3.3l4.9-24.4c.5-2.3.6-3.4.6-5 0-4.7-2-7.1-6.7-7.1-2.5 0-7.4 2.4-12.8 8.1l-5.7 28.3H370l7.7-38.2zM435.1 325.8l-2.6 14h-3.3l11.2-55.8h2.8l-.8 5.5h.3c4.1-3.3 8.8-6.4 14.1-6.4 6.8 0 11.2 4.9 11.2 13.9 0 14.8-10.2 26.5-20.8 26.5-4.5 0-7.9-2.6-10.1-6.2h-.2l-1.8 8.5zm6.6-32.6-4.2 20.7c2.8 4.8 5.9 6.6 9.5 6.6 9.1 0 17.5-11.4 17.5-23 0-7.7-3.3-11.5-8.6-11.5-4.2-.1-9.8 2.9-14.2 7.2zM475.2 319.9c0-.6.2-1.5.4-2.4l10.5-52.6h3.3l-10.5 52.8c-.2.8-.2 1.3-.2 1.6 0 .7.4 1.2 1.2 1.2.3 0 .5 0 1.3-.3l.2 2.7c-.9.3-1.5.5-2.7.5-2.1 0-3.5-1.2-3.5-3.5zM513.2 283c8.3 0 11.6 5.7 11.6 13.6 0 2.7-.6 5.2-1.1 6.7h-26.8c-2.1 12 3.8 17.2 11.5 17.2 3.4 0 6.8-1.7 9.6-3.7l1.5 2.4c-3.1 2.2-7.2 4.2-11.6 4.2-8.9 0-14.6-5.6-14.6-15.8-.1-14.7 10-24.6 19.9-24.6zm8 17.7c.3-1.5.5-2.9.5-4.6 0-5.2-2.3-10.3-8.8-10.3-6.8 0-13.4 6.1-15.5 14.8h23.8zM538.4 284h2.8l-.9 6.1h.3c4.3-4.1 9-7.1 12.8-7.1 6.3 0 8.6 3.7 8.8 8 5.3-5.1 10.2-8 14-8 6.4 0 9 3.8 9 9.4 0 1.9-.2 3-.6 5.2l-5 24.8h-3.3l4.9-24.4c.5-2.3.6-3.4.6-5 0-4.7-2-7.1-6.7-7.1-2.5 0-7.4 2.4-12.8 8.1l-5.7 28.3h-3.3l4.9-24.4c.5-2.3.6-3.4.6-5 0-4.7-2-7.1-6.7-7.1-2.5 0-7.4 2.4-12.8 8.1l-5.7 28.3h-3.3l8.1-38.2zM613.4 283c8.3 0 11.6 5.7 11.6 13.6 0 2.7-.6 5.2-1.1 6.7h-26.8c-2.1 12 3.8 17.2 11.5 17.2 3.4 0 6.8-1.7 9.6-3.7l1.5 2.4c-3.1 2.2-7.2 4.2-11.6 4.2-8.9 0-14.6-5.6-14.6-15.8 0-14.7 10.1-24.6 19.9-24.6zm8.1 17.7c.3-1.5.5-2.9.5-4.6 0-5.2-2.3-10.3-8.8-10.3-6.8 0-13.4 6.1-15.5 14.8h23.8zM638.7 284h2.8l-.9 6.1h.3c4.7-4.1 9-7.1 13.7-7.1 6.6 0 9.2 3.8 9.2 9.4 0 1.9-.2 3-.6 5.2l-5 24.8h-3.3l4.9-24.4c.5-2.3.6-3.4.6-5 0-4.7-2-7.1-6.8-7.1-3.4 0-7.9 2.4-13.7 8.1l-5.7 28.3H631l7.7-38.3zM674.4 315.8c0-1.5.2-2.5.4-3.8l5.2-25.1h-6l.5-2.5 6.2-.3 2.7-11h2.8l-2.2 11h10.4l-.6 2.9h-10.4l-5.2 25.3c-.2 1-.3 1.9-.3 3 0 3.6 1.3 5.4 5.4 5.4 1.8 0 3.4-.8 4.6-1.4l.9 2.5c-1.5.8-3.7 1.8-6.2 1.8-6.2-.2-8.2-3.7-8.2-7.8zM696 309.5c0-14.8 10.2-26.5 20.8-26.5 4.5 0 7.9 2.5 9.9 6.3h.3l1.5-5.3h2.8l-7.7 38.4h-2.8l.9-6.1h-.3c-4 4.1-8.9 7.1-14.2 7.1-6.7 0-11.2-4.9-11.2-13.9zm26.3 2.6 4-19.3c-2.8-5-5.9-6.9-9.5-6.9-9.1 0-17.5 11.4-17.5 23 0 7.8 3.3 11.5 8.6 11.5 5 0 9.9-2.9 14.4-8.3zM740.4 315.8c0-1.5.2-2.5.4-3.8l5.2-25.1h-6l.5-2.5 6.2-.3 2.7-11h2.8l-2.2 11h10.4l-.6 2.9h-10.4l-5.2 25.3c-.2 1-.3 1.9-.3 3 0 3.6 1.3 5.4 5.4 5.4 1.8 0 3.4-.8 4.6-1.4l.9 2.5c-1.5.8-3.7 1.8-6.2 1.8-6.1-.2-8.2-3.7-8.2-7.8zM769.5 284h3.3l-7.7 38.4h-3.3l7.7-38.4zm1-11.9c0-2.1 1.6-3.6 3.4-3.6 1.5 0 2.7 1.1 2.7 2.8 0 2-1.6 3.5-3.4 3.5-1.5-.1-2.7-1.2-2.7-2.7zM779.7 308.2c0-14.4 9.8-25.1 20.3-25.1 7.9 0 13 5.6 13 15.2 0 14.4-9.8 25.1-20.3 25.1-7.9 0-13-5.6-13-15.2zm29.9-9.5c0-8.3-3.6-12.8-10-12.8-8.2 0-16.7 10-16.7 21.8 0 8.3 3.6 12.8 10 12.8 8.3 0 16.7-10 16.7-21.8zM827.4 284h2.8l-.9 6.1h.3c4.7-4.1 9-7.1 13.7-7.1 6.6 0 9.2 3.8 9.2 9.4 0 1.9-.2 3-.6 5.2l-5 24.8h-3.3l4.9-24.4c.5-2.3.6-3.4.6-5 0-4.7-2-7.1-6.8-7.1-3.4 0-7.9 2.4-13.7 8.1l-5.7 28.3h-3.3l7.8-38.3zM857.2 316.2l2.3-1.8c2.2 3.4 6 6.1 10.9 6.1 5.3 0 9.8-3.7 9.8-8 0-3.1-1.3-5.1-7.3-8.3-6.9-3.7-9.4-6.4-9.4-10.3 0-6.5 5.6-10.8 12.1-10.8 4.3 0 7.9 1.9 10.6 4.7l-2.1 2.1c-2.1-2.2-4.7-4-8.6-4-4.9 0-8.8 3.4-8.8 7.5 0 3.7 3.4 5.6 7.1 7.7 8.3 4.5 9.6 7.4 9.6 10.9 0 7-5.8 11.4-13.4 11.4-5.5 0-10.6-3.6-12.8-7.2zM890.2 320.5c0-2 1.8-4.2 3.9-4.2 1.7 0 2.5 1.3 2.5 3 0 2-1.6 4.1-3.8 4.1-1.7 0-2.6-1.3-2.6-2.9z"/>
</svg>